<svg xmlns="http://www.w3.org/2000/svg" xmlns:xlink="http://www.w3.org/1999/xlink" viewBox="0 0 335.9 200.01"><defs><style>.cls-1{isolation:isolate;}.cls-2{fill:#f7b607;}.cls-3{fill:url(#linear-gradient);}.cls-4{fill:url(#linear-gradient-2);}.cls-5{mix-blend-mode:multiply;opacity:0.4;}.cls-6{fill:#c08da5;}.cls-23,.cls-7{fill:none;}.cls-8{fill:url(#Áåçûìÿííûé_ãðàäèåíò_181);}.cls-9{fill:url(#Áåçûìÿííûé_ãðàäèåíò_214);}.cls-10{fill:url(#Áåçûìÿííûé_ãðàäèåíò_202);}.cls-11{fill:url(#Áåçûìÿííûé_ãðàäèåíò_204);}.cls-12{fill:url(#Áåçûìÿííûé_ãðàäèåíò_204-2);}.cls-13{fill:url(#Áåçûìÿííûé_ãðàäèåíò_204-3);}.cls-14{fill:url(#Áåçûìÿííûé_ãðàäèåíò_204-4);}.cls-15{fill:url(#Áåçûìÿííûé_ãðàäèåíò_204-5);}.cls-16{fill:url(#Áåçûìÿííûé_ãðàäèåíò_204-6);}.cls-17{fill:url(#Áåçûìÿííûé_ãðàäèåíò_204-7);}.cls-18{fill:url(#Áåçûìÿííûé_ãðàäèåíò_204-8);}.cls-19{fill:#352258;}.cls-20{fill:url(#Dégradé_sans_nom_3);}.cls-21{fill:url(#Dégradé_sans_nom_6);}.cls-22{fill:#e26131;}.cls-23{stroke:#3d2770;stroke-miterlimit:10;stroke-width:4px;}</style><linearGradient id="linear-gradient" x1="99.43" y1="3.62" x2="210.37" y2="245.67" gradientUnits="userSpaceOnUse"><stop offset="0.03" stop-color="#8bced6"/><stop offset="0.27" stop-color="#e26131"/><stop offset="0.77" stop-color="#e69238"/><stop offset="1" stop-color="#a5aca1"/></linearGradient><linearGradient id="linear-gradient-2" x1="121.75" y1="14.52" x2="186.84" y2="217.01" gradientUnits="userSpaceOnUse"><stop offset="0" stop-color="#e26131"/><stop offset="0.28" stop-color="#de202f"/><stop offset="0.28" stop-color="#de212f"/><stop offset="0.45" stop-color="#e25133"/><stop offset="0.59" stop-color="#e46f35"/><stop offset="0.66" stop-color="#e57a36"/><stop offset="0.72" stop-color="#e57335"/><stop offset="0.8" stop-color="#e35e34"/><stop offset="0.9" stop-color="#e13c31"/><stop offset="0.92" stop-color="#e13731"/></linearGradient><linearGradient id="Áåçûìÿííûé_ãðàäèåíò_181" x1="503.62" y1="171.44" x2="503.62" y2="28.92" gradientTransform="matrix(-1, 0, 0, 1, 671.71, 0)" gradientUnits="userSpaceOnUse"><stop offset="0" stop-color="#352460"/><stop offset="1" stop-color="#562b85"/></linearGradient><linearGradient id="Áåçûìÿííûé_ãðàäèåíò_214" x1="170.56" y1="171.44" x2="170.56" y2="28.92" gradientUnits="userSpaceOnUse"><stop offset="0" stop-color="#41277f"/><stop offset="1" stop-color="#8c3c8e"/></linearGradient><linearGradient id="Áåçûìÿííûé_ãðàäèåíò_202" x1="139.41" y1="135.83" x2="147.49" y2="135.83" gradientUnits="userSpaceOnUse"><stop offset="0" stop-color="#472c86"/><stop offset="1" stop-color="#d8408f"/></linearGradient><linearGradient id="Áåçûìÿííûé_ãðàäèåíò_204" x1="145.88" y1="43.3" x2="183.54" y2="43.3" gradientUnits="userSpaceOnUse"><stop offset="0" stop-color="#562b85"/><stop offset="1" stop-color="#352460"/></linearGradient><linearGradient id="Áåçûìÿííûé_ãðàäèåíò_204-2" x1="145.1" y1="49.65" x2="184.25" y2="49.65" xlink:href="#Áåçûìÿííûé_ãðàäèåíò_204"/><linearGradient id="Áåçûìÿííûé_ãðàäèåíò_204-3" x1="143.97" y1="58.08" x2="186.15" y2="58.08" xlink:href="#Áåçûìÿííûé_ãðàäèåíò_204"/><linearGradient id="Áåçûìÿííûé_ãðàäèåíò_204-4" x1="143.69" y1="66.35" x2="187.28" y2="66.35" xlink:href="#Áåçûìÿííûé_ãðàäèåíò_204"/><linearGradient id="Áåçûìÿííûé_ãðàäèåíò_204-5" x1="144.46" y1="76.24" x2="187.95" y2="76.24" xlink:href="#Áåçûìÿííûé_ãðàäèåíò_204"/><linearGradient id="Áåçûìÿííûé_ãðàäèåíò_204-6" x1="145.88" y1="84.71" x2="188.08" y2="84.71" xlink:href="#Áåçûìÿííûé_ãðàäèåíò_204"/><linearGradient id="Áåçûìÿííûé_ãðàäèåíò_204-7" x1="149.17" y1="95.02" x2="187.28" y2="95.02" xlink:href="#Áåçûìÿííûé_ãðàäèåíò_204"/><linearGradient id="Áåçûìÿííûé_ãðàäèåíò_204-8" x1="144.78" y1="106.34" x2="185.9" y2="106.34" xlink:href="#Áåçûìÿííûé_ãðàäèåíò_204"/><linearGradient id="Dégradé_sans_nom_3" x1="176.69" y1="171.2" x2="176.69" y2="28.19" gradientUnits="userSpaceOnUse"><stop offset="0" stop-color="#df2232"/><stop offset="1" stop-color="#e57838"/></linearGradient><linearGradient id="Dégradé_sans_nom_6" x1="167.46" y1="171.44" x2="167.46" y2="52.5" gradientUnits="userSpaceOnUse"><stop offset="0" stop-color="#de1f30"/><stop offset="1" stop-color="#e67438"/></linearGradient></defs><g class="cls-1"><g id="Calque_2" data-name="Calque 2"><g id="Calque_1-2" data-name="Calque 1"><circle class="cls-2" cx="54.81" cy="30.79" r="30.79"/><path class="cls-3" d="M335.9,171.47H0c0-2.35.05-4.71.15-7,.05-1.28.12-2.56.2-3.84,0-.29,0-.59.07-.88.12-1.81.26-3.62.45-5.4.07-.71.15-1.42.23-2.12.16-1.41.33-2.81.54-4.21,0-.16,0-.32.06-.48.08-.6.18-1.22.27-1.82.34-2.19.74-4.36,1.15-6.52a1.76,1.76,0,0,0,.07-.33c.15-.75.28-1.49.44-2.23.07-.34.14-.68.22-1q.21-1,.45-2c.12-.5.23-1,.35-1.49s.23-1,.36-1.43a.29.29,0,0,1,0-.1c.08-.35.16-.68.25-1s.16-.66.26-1,.13-.52.21-.78h0s0,0,0,0c.22-.86.47-1.71.71-2.56l.16-.56c.13-.48.28-1,.43-1.45.18-.67.38-1.34.6-2,.37-1.17.75-2.34,1.15-3.51.1-.29.19-.59.31-.88.83-2.47,1.74-4.92,2.71-7.33.51-1.29,1-2.56,1.58-3.82A168,168,0,0,1,312,85.14c.6,1,1.19,2,1.77,3,.33.59.67,1.18,1,1.77.45.8.9,1.6,1.33,2.42S317,94,317.4,94.8c.35.67.7,1.36,1,2a6.67,6.67,0,0,1,.35.71c.36.74.73,1.48,1.08,2.23L321,102.3l1.13,2.53,1.08,2.57,1,2.59c.33.86.67,1.73,1,2.6s.58,1.55.86,2.33c.36,1,.69,2,1,3,.6,1.77,1.18,3.55,1.7,5.35,0,.09.06.2.09.29.51,1.7,1,3.42,1.44,5.13.24.91.48,1.84.69,2.75s.44,1.84.66,2.76.41,1.85.6,2.78c.06.22.11.46.15.69.15.7.28,1.4.41,2.11.18.93.35,1.87.51,2.81.29,1.61.54,3.23.78,4.85,0,.2.06.4.08.59.08.54.15,1.09.22,1.62s.14,1.14.21,1.71c.11.88.22,1.75.3,2.64s.17,1.64.24,2.47.12,1.43.17,2.14c0,.49.08,1,.11,1.48.07.87.12,1.75.16,2.62a1,1,0,0,0,0,.17c0,.91.08,1.82.11,2.75s.07,1.87.08,2.83S335.9,170.44,335.9,171.47Z"/><path class="cls-4" d="M335.9,171.47H0c0-2.35.05-4.71.15-7,.05-1.28.12-2.56.2-3.84,0-.29,0-.59.07-.88.12-1.81.26-3.62.45-5.4.07-.71.15-1.42.23-2.12.16-1.41.33-2.81.54-4.21,0-.16,0-.32.06-.48.08-.6.18-1.22.27-1.82.34-2.19.74-4.36,1.15-6.52a1.76,1.76,0,0,0,.07-.33c.15-.75.28-1.49.44-2.23.07-.34.14-.68.22-1q.21-1,.45-2c.12-.5.23-1,.35-1.49s.23-1,.36-1.43a.29.29,0,0,1,0-.1c.08-.35.16-.68.25-1s.16-.66.26-1,.13-.52.21-.78h0s0,0,0,0c.22-.86.47-1.71.71-2.56l.16-.56c.13-.48.28-1,.43-1.45.18-.67.38-1.34.6-2,.37-1.17.75-2.34,1.15-3.51.1-.29.19-.59.31-.88.83-2.47,1.74-4.92,2.71-7.33.51-1.29,1-2.56,1.58-3.82A168,168,0,0,1,312,85.14c.6,1,1.19,2,1.77,3,.33.59.67,1.18,1,1.77.45.8.9,1.6,1.33,2.42S317,94,317.4,94.8c.35.67.7,1.36,1,2a6.67,6.67,0,0,1,.35.71c.36.74.73,1.48,1.08,2.23L321,102.3l1.13,2.53,1.08,2.57,1,2.59c.33.86.67,1.73,1,2.6s.58,1.55.86,2.33c.36,1,.69,2,1,3,.6,1.77,1.18,3.55,1.7,5.35,0,.09.06.2.09.29.51,1.7,1,3.42,1.44,5.13.24.91.48,1.84.69,2.75s.44,1.84.66,2.76.41,1.85.6,2.78c.06.22.11.46.15.69.15.7.28,1.4.41,2.11.18.93.35,1.87.51,2.81.29,1.61.54,3.23.78,4.85,0,.2.06.4.08.59.08.54.15,1.09.22,1.62s.14,1.14.21,1.71c.11.88.22,1.75.3,2.64s.17,1.64.24,2.47.12,1.43.17,2.14c0,.49.08,1,.11,1.48.07.87.12,1.75.16,2.62a1,1,0,0,0,0,.17c0,.91.08,1.82.11,2.75s.07,1.87.08,2.83S335.9,170.44,335.9,171.47Z"/><g class="cls-5"><path class="cls-6" d="M199.43,113.08c-7.91,6.84-17,8.54-27,9.69-8.67,1-17,2.64-24.35,7.52-14.14,9.33-21,26.55-35.07,36.11a43,43,0,0,1-10.26,5.07H0c0-2.35.05-4.71.15-7,.05-1.28.12-2.56.2-3.84,0-.29,0-.59.07-.88.12-1.81.26-3.62.45-5.4.07-.71.15-1.42.23-2.12.16-1.41.33-2.81.54-4.21,0-.16,0-.32.06-.48.08-.6.18-1.22.27-1.82.34-2.19.74-4.36,1.15-6.52a1.76,1.76,0,0,0,.07-.33c.15-.75.28-1.49.44-2.23a1.77,1.77,0,0,1,.08-.33c0-.23.08-.46.14-.68q.21-1,.45-2c.12-.5.23-1,.35-1.49s.23-1,.36-1.43a.29.29,0,0,1,0-.1c.08-.35.16-.68.25-1s.16-.66.26-1,.13-.52.21-.78h0s0,0,0,0c.22-.86.47-1.71.71-2.56l.16-.56c.13-.48.28-1,.43-1.45.18-.67.38-1.34.6-2,.37-1.17.75-2.34,1.15-3.51.1-.29.19-.59.31-.88.84-2.47,1.74-4.92,2.71-7.33.51-1.29,1-2.56,1.58-3.82,1.12-.26,2.26-.48,3.43-.67a65.52,65.52,0,0,1,9.17-.83,118.42,118.42,0,0,1,20,1.41C64,108,81.56,112.28,99.77,109.64c10.52-1.53,19.71-6.22,29.42-10.24a89.33,89.33,0,0,1,25.72-6.75,165.6,165.6,0,0,1,39.36.67c4.26.63,10.48,1.55,13.11,5.41C210.77,103.73,202.54,110.4,199.43,113.08Z"/><path class="cls-6" d="M297.9,147.9c-2.14-9.3-3.91-18.63-2.61-28.18,1.11-8.15,4.84-15.2,9.15-22.06,2.63-4.16,5.32-8.28,7.59-12.52.6,1,1.19,2,1.77,3,.33.59.67,1.18,1,1.77.45.8.9,1.6,1.33,2.42S317,94,317.4,94.8c.35.67.7,1.36,1,2a6.67,6.67,0,0,1,.35.71c.36.74.73,1.48,1.08,2.23L321,102.3l1.13,2.53,1.08,2.57,1,2.59c.33.86.67,1.73,1,2.6s.58,1.55.86,2.33c.36,1,.69,2,1,3,.6,1.77,1.16,3.55,1.7,5.35,0,.09.06.2.09.29.51,1.7,1,3.42,1.44,5.13.24.91.48,1.84.69,2.75s.44,1.84.66,2.76.41,1.85.6,2.78c.06.22.11.46.15.69.15.7.28,1.4.41,2.11.18.93.35,1.87.51,2.81.29,1.61.54,3.23.78,4.85,0,.2.06.4.08.59.08.54.15,1.09.22,1.62s.14,1.14.21,1.71c.11.88.22,1.75.3,2.64s.17,1.64.24,2.47.12,1.43.17,2.14c0,.49.08,1,.11,1.48.07.87.12,1.75.16,2.62a1,1,0,0,0,0,.17c0,.91.08,1.82.11,2.75s.07,1.87.08,2.83,0,2,0,3.06h-35C301.51,163.49,299.69,155.67,297.9,147.9Z"/><path class="cls-6" d="M225.86,54.12c4.12-1.41,8.11-3.41,12.42-4.24,5-.94,9.84-2,14.93-1.84s10.13.89,15.2,1.2A91.61,91.61,0,0,0,282.79,49,169.36,169.36,0,0,0,263,33c-13.16,10.35-38.69,12.48-52.12,18.89C215.56,54.91,220.33,56,225.86,54.12Z"/></g><path class="cls-7" d="M335.87,168.41c0-1,0-1.89-.08-2.83s-.07-1.84-.11-2.75a1,1,0,0,1,0-.17c0-.87-.09-1.75-.16-2.62,0-.49-.07-1-.11-1.48,0-.71-.11-1.43-.17-2.14s-.15-1.66-.24-2.47-.19-1.76-.3-2.64c-.07-.57-.13-1.14-.21-1.71s-.14-1.08-.22-1.62c0-.19-.05-.39-.08-.59-.24-1.62-.49-3.24-.78-4.85-.16-.94-.33-1.88-.51-2.81-.13-.71-.26-1.41-.41-2.11,0-.23-.09-.47-.15-.69-.19-.93-.39-1.85-.6-2.78s-.43-1.83-.66-2.76-.45-1.84-.69-2.75c-.45-1.71-.93-3.43-1.44-5.13,0-.09-.05-.2-.09-.29-.52-1.8-1.1-3.58-1.7-5.35-.33-1-.66-2-1-3-.28-.78-.57-1.55-.86-2.33s-.66-1.74-1-2.6l-1-2.59-1.08-2.57L321,102.3l-1.16-2.52c-.35-.75-.72-1.49-1.08-2.23a6.67,6.67,0,0,0-.35-.71c-.33-.68-.68-1.37-1-2-.43-.83-.85-1.64-1.28-2.45s-.88-1.62-1.33-2.42c-.32-.59-.66-1.18-1-1.77-.58-1-1.17-2-1.77-3a168,168,0,0,0-298.6,20.44c-.54,1.26-1.07,2.53-1.58,3.82-1,2.41-1.88,4.86-2.71,7.33-.12.29-.21.59-.31.88-.4,1.17-.78,2.34-1.15,3.51-.22.66-.42,1.33-.6,2-.15.48-.3,1-.43,1.45l-.16.56c-.24.85-.49,1.7-.71,2.56,0,0,0,0,0,0h0c-.08.26-.14.51-.21.78s-.18.66-.26,1-.17.68-.25,1a.29.29,0,0,0,0,.1c-.13.47-.24,1-.36,1.43s-.23,1-.35,1.49q-.24,1-.45,2c-.08.33-.15.67-.22,1-.16.74-.29,1.48-.44,2.23a1.76,1.76,0,0,1-.07.33c-.41,2.16-.81,4.33-1.15,6.52-.09.6-.19,1.22-.27,1.82,0,.16-.05.32-.06.48-.21,1.4-.38,2.8-.54,4.21-.08.7-.16,1.41-.23,2.12-.19,1.78-.33,3.59-.45,5.4,0,.29-.06.59-.07.88-.08,1.28-.15,2.56-.2,3.84-.1,2.33-.15,4.69-.15,7H17.38a139.18,139.18,0,0,1,.3-35.32c.45-3.38,1-6.7,1.73-10A136.61,136.61,0,0,1,26,104.08,139,139,0,0,1,238.49,43.57q3.28,2.46,6.42,5.11A138.69,138.69,0,0,1,294.38,155a135.65,135.65,0,0,1-1,16.47h42.5C335.9,170.44,335.88,169.42,335.87,168.41Z"/><path class="cls-8" d="M196.66,171.44H139.84s-2.42-34.18,5.84-65.47c9.77-37,10.9-49.75,11.51-77l25.22,4.92s12,47.83,0,85.68C197.83,148.09,196.66,171.44,196.66,171.44Z"/><path class="cls-9" d="M197.15,171.44h-5.88s-5.07-25.6-29.72-53.6a68.6,68.6,0,0,1-17.41-41.27,66.41,66.41,0,0,1,2.51-24.07c3.43-8.07,5.42-11.62,10.54-23.58-.07,13.52,1.26,23.14,5,34.39,3.63,11.06,9.55,23.71,18.68,43.17C194.4,135.38,197.15,171.44,197.15,171.44Z"/><path class="cls-10" d="M139.66,171.47c-.28-6-.3-12-.18-18s.43-12,1-18,1.3-12,2.4-17.86a117.32,117.32,0,0,1,4.64-17.39,117.49,117.49,0,0,0-4.4,17.44c-1,5.91-1.67,11.88-2.15,17.85s-.67,12-.72,18,.06,12,.42,18Z"/><polygon class="cls-11" points="145.88 54.96 157.13 31.63 183.54 37.41 157.14 33.05 145.88 54.96"/><polygon class="cls-12" points="184.25 45.09 157.35 40.39 145.1 58.91 157.56 41.98 184.25 45.09"/><polygon class="cls-13" points="143.97 65.95 158.77 50.2 186.15 54.44 159.09 51.87 143.97 65.95"/><polygon class="cls-14" points="187.28 63.19 161.12 60.05 143.69 72.65 161.22 61.28 187.28 63.19"/><polygon class="cls-15" points="144.46 82.12 164.68 70.35 187.96 73.11 164.87 71.32 144.46 82.12"/><polygon class="cls-16" points="188.08 83.55 169.02 81.42 145.88 88 169.67 82.3 188.08 83.55"/><polygon class="cls-17" points="149.17 97 174.65 93.04 187.28 94.61 174.98 93.97 149.17 97"/><polygon class="cls-18" points="144.78 107.84 153.01 106.88 180.07 104.83 185.9 104.83 144.78 107.84"/><polygon class="cls-19" points="185.12 115.11 159.02 115.61 142.38 118.45 159.35 116.22 185.12 115.11"/><polygon class="cls-19" points="140.86 128.7 167.46 125.8 189.01 126.54 168.22 126.78 140.86 128.7"/><polygon class="cls-19" points="192.13 138.35 139.63 142.31 177.5 140.33 192.13 138.35"/><polygon class="cls-19" points="139.23 151.97 194.54 150.44 183.49 151.21 139.23 151.97"/><polygon class="cls-19" points="139.18 166.5 196.68 164.73 189.51 165.61 139.18 166.5"/><path class="cls-20" d="M157.41,29.17s.05-.1.13-.1l.39,0a5,5,0,0,1,.65.08c.89.18,1.64.44,2.77.64,4,.88,6.36,1.44,10.57,2.17,3.74.72,6,1.12,10.16,1.94l-.19-.25c1.24,5.41,2.23,10.89,3.08,16.39s1.52,11,2,16.56q.36,4.15.56,8.33c.12,2.77.18,5.56.17,8.34s-.12,5.56-.32,8.34-.51,5.54-.95,8.29c.48-2.74.82-5.51,1.08-8.28s.37-5.56.43-8.35,0-5.57,0-8.36-.25-5.57-.44-8.35q-.66-8.34-1.87-16.61c-.81-5.52-1.76-11-3-16.47l0-.17-.15-.08c-3.71-.82-6.34-1.23-10.26-2.09-4.35-.82-6.5-1.32-10.54-2.12-1-.2-1.91-.56-2.89-.76-.25,0-.5-.08-.77-.1a2.21,2.21,0,0,0-.89.09,1,1,0,0,0-.51.4.74.74,0,0,0-.12.33l0,.19v.62l-.06,1.57.06,1.46v.54c-.2,3.83.15,4.1.49,7.92a90.46,90.46,0,0,0,1.77,11.33c.81,3.74,1.82,7.43,3,11.07A183.74,183.74,0,0,0,170.14,85c1.61,3.46,3,6.35,4.69,9.74.87,1.69,1.5,3.08,2.46,5,.91,1.68,1.82,3.9,2.68,5.59a139.27,139.27,0,0,1,8.34,21.18c1.12,3.63,2.12,7.3,3,11s1.73,7.41,2.45,11.15A217.75,217.75,0,0,1,197,171.2a218.74,218.74,0,0,0-2.89-22.65q-1-5.62-2.3-11.2t-2.95-11A139.77,139.77,0,0,0,180.66,105c-1.71-3.43-3.06-6.84-4.78-10.23s-3.35-6.65-4.95-10.11a182.67,182.67,0,0,1-8.36-21.18,107.53,107.53,0,0,1-4.68-22.2,53.32,53.32,0,0,1-.5-9.27,13.45,13.45,0,0,1,0-1.56l0-.26,0-.28,0-.56Z"/><path class="cls-21" d="M146.62,52.5c-.4,1.32-.71,2.66-1,4s-.52,2.69-.71,4a72.37,72.37,0,0,0-.68,8.18,74.71,74.71,0,0,0,.21,8.2c.1,1.36.28,2.72.45,4.08s.41,2.7.7,4,.61,2.66.92,4,.71,2.64,1.17,3.92a66.43,66.43,0,0,0,3,7.61,72.22,72.22,0,0,0,8.62,13.87c.85,1.06,1.74,2.1,2.61,3.15l2.65,3.16c1.81,2.08,3.43,4.31,5.12,6.49A141.29,141.29,0,0,1,178.79,141a134.55,134.55,0,0,1,7.36,14.77c1,2.54,2,5.11,2.9,7.72a66.69,66.69,0,0,1,2.19,7.94,77.43,77.43,0,0,0-2.44-7.85c-.92-2.59-2-5.12-3.09-7.62a132.36,132.36,0,0,0-7.58-14.57A155.88,155.88,0,0,0,169,127.76c-1.69-2.15-3.31-4.36-5.13-6.42l-2.65-3.13c-.88-1.06-1.79-2.1-2.66-3.18a73.25,73.25,0,0,1-8.66-14.09,69.76,69.76,0,0,1-3-7.73c-.45-1.3-.78-2.65-1.15-4s-.64-2.68-.86-4-.45-2.72-.65-4.08-.31-2.75-.39-4.12a73.59,73.59,0,0,1-.07-8.27,70.42,70.42,0,0,1,.91-8.2A52.52,52.52,0,0,1,146.62,52.5Z"/><polygon class="cls-22" points="82.93 180.14 86.16 186.68 93.38 187.73 88.16 192.82 89.39 200.01 82.93 196.62 76.47 200.01 77.71 192.82 72.48 187.73 79.7 186.68 82.93 180.14"/><polygon class="cls-22" points="117.39 180.14 120.62 186.68 127.84 187.73 122.61 192.82 123.85 200.01 117.39 196.62 110.94 200.01 112.17 192.82 106.94 187.73 114.16 186.68 117.39 180.14"/><polygon class="cls-22" points="151.68 180.14 154.91 186.68 162.13 187.73 156.9 192.82 158.13 200.01 151.68 196.62 145.22 200.01 146.45 192.82 141.23 187.73 148.45 186.68 151.68 180.14"/><polygon class="cls-22" points="184.94 180.14 188.17 186.68 195.39 187.73 190.17 192.82 191.4 200.01 184.94 196.62 178.49 200.01 179.72 192.82 174.5 187.73 181.72 186.68 184.94 180.14"/><polygon class="cls-22" points="220.89 180.14 224.12 186.68 231.34 187.73 226.12 192.82 227.35 200.01 220.89 196.62 214.44 200.01 215.67 192.82 210.44 187.73 217.66 186.68 220.89 180.14"/><polygon class="cls-22" points="253.85 180.14 257.07 186.68 264.29 187.73 259.07 192.82 260.3 200.01 253.85 196.62 247.39 200.01 248.62 192.82 243.4 187.73 250.62 186.68 253.85 180.14"/><line class="cls-23" x1="10.47" y1="191.12" x2="61.4" y2="191.12"/><line class="cls-23" x1="275.72" y1="191.12" x2="326.64" y2="191.12"/></g></g></g></svg>